<svg id="visual" viewBox="0 0 900 600" width="900" height="600" xmlns="http://www.w3.org/2000/svg" xmlns:xlink="http://www.w3.org/1999/xlink" version="1.1"><rect x="0" y="0" width="900" height="600" fill="#001122"></rect><path d="M0 455L21.5 461.3C43 467.7 86 480.3 128.8 478.2C171.7 476 214.3 459 257.2 458.2C300 457.3 343 472.7 385.8 483.2C428.7 493.7 471.3 499.3 514.2 484C557 468.7 600 432.3 642.8 433.3C685.7 434.3 728.3 472.7 771.2 469C814 465.3 857 419.7 878.5 396.8L900 374L900 601L878.5 601C857 601 814 601 771.2 601C728.3 601 685.7 601 642.8 601C600 601 557 601 514.2 601C471.3 601 428.7 601 385.8 601C343 601 300 601 257.2 601C214.3 601 171.7 601 128.8 601C86 601 43 601 21.5 601L0 601Z" fill="#141414" stroke-linecap="round" stroke-linejoin="miter"></path></svg>